<svg xmlns="http://www.w3.org/2000/svg" xmlns:xlink="http://www.w3.org/1999/xlink" viewBox="0 0 625.02 625.02"><defs><style>.cls-1{opacity:0.15;fill:url(#linear-gradient);}.cls-2{fill:#2a94f4;}</style><linearGradient id="linear-gradient" x1="541.34" y1="673.34" x2="239.53" y2="150.59" gradientUnits="userSpaceOnUse"><stop offset="0" stop-color="#43aced" stop-opacity="0"/><stop offset="1" stop-color="#231f20"/></linearGradient></defs><title>Multimedia Icons</title><g id="Layer_2" data-name="Layer 2"><path class="cls-1" d="M398.32,153.45,625,380.23V625H331.59L174.11,475.33,181,295.15l73.53,2-54.67-50.58s15.39-186.87,198.44-93.16"/></g><g id="Layer_1" data-name="Layer 1"><path class="cls-2" d="M437.69,287.4h-5.75V236.46a119.47,119.47,0,1,0-238.94,0,10.94,10.94,0,0,0,21.87,0,97.6,97.6,0,1,1,195.2,0V287.4H187.33a21.16,21.16,0,0,0-21.14,21.14V444.7A63.43,63.43,0,0,0,229.53,508h166a63.43,63.43,0,0,0,63.34-63.34V308.54a21.15,21.15,0,0,0-21.14-21.14ZM437,444.7a41.49,41.49,0,0,1-41.47,41.47H229.61a41.5,41.5,0,0,1-41.47-41.47V309.27H437Zm0,0"/><path class="cls-2" d="M312.55,440.25a40.91,40.91,0,1,0-40.9-40.91,41,41,0,0,0,40.9,40.91Zm0-60a19.08,19.08,0,1,1-19,19.11,19.06,19.06,0,0,1,19-19.11Zm0,0"/></g></svg>